HIERARCHY
ROOT Hips
{
	OFFSET -0.001795 -0.223333 0.028219
	CHANNELS 6 Xposition Yposition Zposition Zrotation Yrotation Xrotation 
	JOINT LeftUpLeg
	{
		OFFSET 0.069520 -0.091406 -0.006815
		CHANNELS 3 Zrotation Yrotation Xrotation
		JOINT LeftLeg
		{
			OFFSET 0.034277 -0.375199 -0.004496
			CHANNELS 3 Zrotation Yrotation Xrotation
			JOINT LeftFoot
			{
				OFFSET -0.013596 -0.397961 -0.043693
				CHANNELS 3 Zrotation Yrotation Xrotation
				JOINT LeftToe
				{
					OFFSET 0.026358 -0.055791 0.119288
					CHANNELS 3 Zrotation Yrotation Xrotation
					End Site
					{
						OFFSET 0.000000 0.000000 0.000000
					}
				}
			}
		}
	}
	JOINT RightUpLeg
	{
		OFFSET -0.067670 -0.090522 -0.004320
		CHANNELS 3 Zrotation Yrotation Xrotation
		JOINT RightLeg
		{
			OFFSET -0.038290 -0.382569 -0.008850
			CHANNELS 3 Zrotation Yrotation Xrotation
			JOINT RightFoot
			{
				OFFSET 0.015774 -0.398415 -0.042312
				CHANNELS 3 Zrotation Yrotation Xrotation
				JOINT RightToe
				{
					OFFSET -0.025372 -0.048144 0.123348
					CHANNELS 3 Zrotation Yrotation Xrotation
					End Site
					{
						OFFSET 0.000000 0.000000 0.000000
					}
				}
			}
		}
	}
	JOINT Spine
	{
		OFFSET -0.002533 0.108963 -0.026696
		CHANNELS 3 Zrotation Yrotation Xrotation
		JOINT Spine1
		{
			OFFSET 0.005487 0.135180 0.001092
			CHANNELS 3 Zrotation Yrotation Xrotation
			JOINT Spine2
			{
				OFFSET 0.001457 0.052922 0.025425
				CHANNELS 3 Zrotation Yrotation Xrotation
				JOINT Neck
				{
					OFFSET -0.002778 0.213870 -0.042857
					CHANNELS 3 Zrotation Yrotation Xrotation
					JOINT Head
					{
						OFFSET 0.005152 0.064970 0.051349
						CHANNELS 3 Zrotation Yrotation Xrotation
						End Site
						{
							OFFSET 0.000000 0.000000 0.000000
						}
					}
				}
				JOINT LeftShoulder
				{
					OFFSET 0.078845 0.121749 -0.034090
					CHANNELS 3 Zrotation Yrotation Xrotation
					JOINT LeftArm
					{
						OFFSET 0.090977 0.030469 -0.008868
						CHANNELS 3 Zrotation Yrotation Xrotation
						JOINT LeftForeArm
						{
							OFFSET 0.259612 -0.012772 -0.027456
							CHANNELS 3 Zrotation Yrotation Xrotation
							JOINT LeftHand
							{
								OFFSET 0.249234 0.008986 -0.001171
								CHANNELS 3 Zrotation Yrotation Xrotation
								End Site
								{
									OFFSET 0.000000 0.000000 0.000000
								}
							}
						}
					}
				}
				JOINT RightShoulder
				{
					OFFSET -0.081759 0.118833 -0.038615
					CHANNELS 3 Zrotation Yrotation Xrotation
					JOINT RightArm
					{
						OFFSET -0.096012 0.032551 -0.009143
						CHANNELS 3 Zrotation Yrotation Xrotation
						JOINT RightForeArm
						{
							OFFSET -0.253742 -0.013329 -0.021401
							CHANNELS 3 Zrotation Yrotation Xrotation
							JOINT RightHand
							{
								OFFSET -0.255298 0.007772 -0.005559
								CHANNELS 3 Zrotation Yrotation Xrotation
								End Site
								{
									OFFSET 0.000000 0.000000 0.000000
								}
							}
						}
					}
				}
			}
		}
	}
}
MOTION
Frames: 8
Frame Time: 0.050000
0.142281 0.955066 1.097898 -3.086068 13.536662 6.894583 4.647138 -0.056917 8.457286 1.167736 -1.470840 18.899557 -5.234199 -2.312270 12.363104 0.000000 0.000000 0.000000 1.639671 2.459800 -31.018180 5.262031 -1.685724 22.634058 -5.314236 -13.226534 2.992840 0.000000 0.000000 0.000000 -2.784670 -0.392854 13.540481 9.479482 -1.176781 -27.844507 -4.292788 -9.613620 30.035955 -3.262384 3.426075 -44.727419 0.000000 0.000000 0.000000 -23.858830 15.264204 -10.532126 -45.303501 -15.076556 -2.340075 -129.833972 -56.597393 107.457437 0.000000 0.000000 0.000000 11.017451 -5.101290 -3.152810 47.105454 -8.694397 -9.817911 78.135495 53.754932 47.489097 0.000000 0.000000 0.000000 
0.153832 0.941934 1.205415 -2.243894 13.763930 5.691494 5.647599 -0.246637 3.366882 -0.838280 -2.828274 36.284177 -0.156585 3.501420 7.274096 0.000000 0.000000 0.000000 2.675621 2.500243 -27.260663 5.263621 -1.771912 23.060976 -4.669443 -11.734293 2.076025 0.000000 0.000000 0.000000 -2.188731 -0.394391 11.978841 8.089893 -0.932890 -26.958260 -2.750649 -7.701071 29.917924 -5.122822 4.420353 -42.516689 0.000000 0.000000 0.000000 -24.503107 14.670866 -10.936799 -44.469090 -9.303764 -4.178161 -122.840058 -54.661515 94.303551 0.000000 0.000000 0.000000 11.090156 -4.517617 -2.553155 48.391035 -8.523807 -10.045319 77.243894 57.382709 51.394829 0.000000 0.000000 0.000000 
0.164580 0.911555 1.308128 -2.466546 12.421932 3.623561 6.302774 -0.533309 -6.437854 -2.846588 -4.324375 56.140071 4.445166 10.172781 3.187961 0.000000 0.000000 0.000000 4.921919 2.639752 -22.270790 4.676036 -2.229532 32.245260 -3.782712 -8.632658 -6.375599 0.000000 0.000000 0.000000 -2.117305 -0.512664 14.086634 8.835076 -1.128035 -26.914340 -1.069615 -1.705135 29.575705 -2.829653 4.206643 -43.669814 0.000000 0.000000 0.000000 -25.289625 14.921753 -12.923519 -44.398746 -2.277391 -6.091393 -110.138122 -52.912570 74.421566 0.000000 0.000000 0.000000 13.697890 -3.977043 -1.625861 47.854762 -1.153096 -7.398601 70.969647 62.765016 53.876599 0.000000 0.000000 0.000000 
0.176090 0.891519 1.405104 -2.119560 10.075460 1.658168 6.879230 -1.085607 -18.845304 -7.045119 -1.499441 66.794445 8.158994 16.683411 -1.013211 0.000000 0.000000 0.000000 5.692626 1.969022 -14.533049 3.911992 -1.848044 35.523423 -3.632488 -6.358219 -12.988221 0.000000 0.000000 0.000000 -3.136682 -0.451913 16.469994 8.476336 -1.089529 -26.753637 2.666306 4.615374 29.618034 -2.802921 4.821910 -43.541408 0.000000 0.000000 0.000000 -26.281283 14.110409 -14.339039 -42.775198 4.577963 -7.628555 -99.491197 -50.325054 58.777134 0.000000 0.000000 0.000000 12.772940 -1.886473 0.197352 49.132878 6.282220 -4.802633 65.036354 69.890260 57.953788 0.000000 0.000000 0.000000 
0.189703 0.898730 1.505163 -1.151800 9.237197 1.008306 6.634408 -1.780945 -28.470928 -7.880458 -0.076534 62.307906 7.920647 16.219106 -1.771580 0.000000 0.000000 0.000000 4.511741 0.231565 -2.020439 2.999292 -0.875518 27.353676 -2.419402 -2.743037 -11.247901 0.000000 0.000000 0.000000 -4.592703 -0.206715 16.166689 8.007022 -0.922452 -27.883154 4.991608 10.131053 31.091047 -2.925634 5.659056 -40.513158 0.000000 0.000000 0.000000 -24.783939 14.217271 -15.477429 -40.169711 9.221013 -8.238819 -97.529003 -46.701420 50.733558 0.000000 0.000000 0.000000 11.891978 -2.438302 0.574280 49.669968 11.230260 -2.825786 73.110890 72.866508 71.041218 0.000000 0.000000 0.000000 
0.206649 0.923673 1.611268 0.265817 9.162442 2.029846 4.106275 -2.644765 -31.470558 -6.258051 -0.090556 42.724767 6.407132 13.762847 1.210389 0.000000 0.000000 0.000000 3.071356 -0.911734 6.192624 2.087577 -0.337482 21.945206 -0.011737 0.832508 -2.074496 0.000000 0.000000 0.000000 -7.204306 0.204324 13.371442 8.579971 -1.066227 -27.622240 6.226875 12.600540 31.853474 -1.932174 5.634670 -39.778750 0.000000 0.000000 0.000000 -23.695250 17.124755 -17.491849 -37.065197 13.216914 -8.551080 -103.872855 -42.573089 49.788424 0.000000 0.000000 0.000000 9.427034 -3.169175 0.125835 50.993922 12.801012 -1.619068 93.119250 74.188556 94.140937 0.000000 0.000000 0.000000 
0.224984 0.949316 1.721592 0.812064 8.285204 2.264764 2.340767 -2.506487 -27.203995 -4.048316 0.094722 17.799696 1.926302 7.433273 8.001580 0.000000 0.000000 0.000000 0.425728 -1.025620 8.684253 2.671709 -0.585223 26.331483 3.490871 2.813358 12.085018 0.000000 0.000000 0.000000 -8.852440 0.385399 11.279910 9.196930 -1.243564 -27.223496 7.466555 13.787265 31.512703 -0.670794 5.244474 -37.841332 0.000000 0.000000 0.000000 -21.937059 20.911231 -18.915711 -37.800791 15.777860 -9.628316 -104.187853 -37.561283 43.267466 0.000000 0.000000 0.000000 6.543042 -4.394581 -0.859362 52.850067 9.670620 -2.305864 110.040742 66.588015 106.141947 0.000000 0.000000 0.000000 
0.242077 0.957507 1.831488 0.671291 10.286079 0.916996 -0.803252 -2.473394 -21.669227 -0.588684 -0.433924 11.059562 -1.063719 3.284247 10.031441 0.000000 0.000000 0.000000 0.299237 -0.679302 5.834124 2.585251 -1.508801 39.913102 2.041818 -0.942962 14.729492 0.000000 0.000000 0.000000 -9.717438 0.362838 10.526629 8.970393 -1.199860 -27.274467 7.272340 9.879987 32.351682 -1.460668 5.225044 -39.187836 0.000000 0.000000 0.000000 -22.095233 21.606248 -18.634637 -38.171611 16.014433 -10.021856 -106.370559 -35.461763 43.119585 0.000000 0.000000 0.000000 6.331993 -5.952585 -1.747030 52.471530 6.343455 -4.023508 115.337752 59.273537 103.167364 0.000000 0.000000 0.000000 
